<svg xmlns="http://www.w3.org/2000/svg" width="300" height="48"><style>@media (prefers-color-scheme:dark){.a{fill:#fff}}</style><path class="a" d="M96.706 48c11.506 0 18.062-2.298 21.983-6.041 4.55-4.35 4.812-10.163 4.821-15.913V0h-16.197v26.068c0 2.233-.065 4.334-1.029 6.435-.193.46-.771 1.708-1.928 2.758-2.592 2.27-6.428 2.42-7.527 2.43h-.344c-1.33-.01-4.959-.154-7.62-2.627-2.575-2.373-2.88-5.247-2.893-8.5V0H69.774v30.354c.004 1.887.15 5.798 2.379 9.241 4.242 6.566 13.562 7.683 15.105 7.88 3.57.47 7.45.52 9.005.525zm64.406-1.642V10.375h16.07V0h-48.53v10.375h16.134v35.983zm60.742 0V35.064H198.65V0h-16.326v46.358zm21.404 0V0h-16.262v46.358zM64.632 0v46.358H48.37l-.001-28.814-26.707 28.814H0L42.97 0zm197.202 0 21.661 24.427V0H299.5v46.358h-13.498l-21.533-24.82v24.82H248.4V0z"/></svg>